<svg width="117" height="117" viewBox="0 0 117 117" fill="none" xmlns="http://www.w3.org/2000/svg">
<circle cx="58.5" cy="58.5" r="58.5" fill="#D9D9D9"/>
<path d="M30.375 38.1875C30.375 64.9388 52.0612 86.625 78.8125 86.625C80.0194 86.625 81.2159 86.5809 82.4009 86.4941C83.7606 86.3944 84.4403 86.3447 85.0594 85.9884C85.5719 85.6934 86.0578 85.1703 86.3147 84.6375C86.625 83.9944 86.625 83.2441 86.625 81.7437V72.9397C86.625 71.6778 86.625 71.0469 86.4172 70.5062C86.2341 70.0284 85.9359 69.6031 85.5497 69.2675C85.1125 68.8875 84.5194 68.6719 83.3338 68.2406L73.3125 64.5966C71.9328 64.095 71.2428 63.8441 70.5884 63.8866C70.0112 63.9241 69.4559 64.1213 68.9841 64.4556C68.4491 64.8347 68.0716 65.4641 67.3162 66.7231L64.75 71C56.4691 67.2497 49.7559 60.5278 46 52.25L50.277 49.6838C51.5358 48.9285 52.1652 48.5509 52.5444 48.0158C52.8787 47.544 53.0759 46.9887 53.1134 46.4116C53.1559 45.7571 52.905 45.0673 52.4034 43.6877L48.7593 33.6663C48.3281 32.4805 48.1125 31.8876 47.7326 31.4503C47.3969 31.064 46.9715 30.7661 46.4938 30.5827C45.953 30.375 45.3221 30.375 44.0604 30.375H35.2563C33.7559 30.375 33.0057 30.375 32.3624 30.6852C31.8297 30.9421 31.3067 31.4282 31.0116 31.9407C30.6553 32.5596 30.6055 33.2394 30.5059 34.5992C30.4192 35.7839 30.375 36.9806 30.375 38.1875Z" fill="#EBAC5F" stroke="#DBAA6F" stroke-opacity="0.8" stroke-width="2" stroke-linecap="round" stroke-linejoin="round"/>
</svg>
