<svg width="117" height="117" viewBox="0 0 117 117" fill="none" xmlns="http://www.w3.org/2000/svg">
<circle cx="58.5" cy="58.5" r="58.5" fill="#032E14" fill-opacity="0.7"/>
<path fill-rule="evenodd" clip-rule="evenodd" d="M58.5 73.25C66.6462 73.25 73.25 66.6462 73.25 58.5C73.25 50.3538 66.6462 43.75 58.5 43.75C50.3538 43.75 43.75 50.3538 43.75 58.5C43.75 66.6462 50.3538 73.25 58.5 73.25ZM58.5 68.3333C63.9307 68.3333 68.3333 63.9307 68.3333 58.5C68.3333 53.0692 63.9307 48.6667 58.5 48.6667C53.0692 48.6667 48.6667 53.0692 48.6667 58.5C48.6667 63.9307 53.0692 68.3333 58.5 68.3333Z" fill="#F3F3F3"/>
<path d="M73.25 41.292C71.8922 41.292 70.7916 42.3926 70.7916 43.7503C70.7916 45.108 71.8922 46.2087 73.25 46.2087C74.6077 46.2087 75.7083 45.108 75.7083 43.7503C75.7083 42.3926 74.6077 41.292 73.25 41.292Z" fill="#F3F3F3"/>
<path fill-rule="evenodd" clip-rule="evenodd" d="M33.066 39.5121C31.4583 42.6673 31.4583 46.7977 31.4583 55.0585V61.9418C31.4583 70.2026 31.4583 74.3331 33.066 77.4881C34.4801 80.2635 36.7366 82.52 39.512 83.9341C42.6672 85.5418 46.7976 85.5418 55.0583 85.5418H61.9416C70.2024 85.5418 74.3329 85.5418 77.4879 83.9341C80.2634 82.52 82.5199 80.2635 83.9339 77.4881C85.5416 74.3331 85.5416 70.2026 85.5416 61.9418V55.0585C85.5416 46.7977 85.5416 42.6673 83.9339 39.5121C82.5199 36.7367 80.2634 34.4803 77.4879 33.0661C74.3329 31.4585 70.2024 31.4585 61.9416 31.4585H55.0583C46.7976 31.4585 42.6672 31.4585 39.512 33.0661C36.7366 34.4803 34.4801 36.7367 33.066 39.5121ZM61.9416 36.3752H55.0583C50.8468 36.3752 47.9838 36.379 45.7709 36.5598C43.6154 36.7359 42.513 37.0551 41.7441 37.4469C39.8938 38.3897 38.3895 39.894 37.4467 41.7443C37.0549 42.5132 36.7357 43.6155 36.5596 45.7711C36.3788 47.984 36.375 50.847 36.375 55.0585V61.9418C36.375 66.1534 36.3788 69.0162 36.5596 71.2292C36.7357 73.3849 37.0549 74.4872 37.4467 75.2562C38.3895 77.1063 39.8938 78.6106 41.7441 79.5533C42.513 79.9452 43.6154 80.2645 45.7709 80.4405C47.9838 80.6212 50.8468 80.6252 55.0583 80.6252H61.9416C66.1533 80.6252 69.016 80.6212 71.229 80.4405C73.3847 80.2645 74.487 79.9452 75.256 79.5533C77.1061 78.6106 78.6104 77.1063 79.5531 75.2562C79.945 74.4872 80.2643 73.3849 80.4404 71.2292C80.621 69.0162 80.625 66.1534 80.625 61.9418V55.0585C80.625 50.847 80.621 47.984 80.4404 45.7711C80.2643 43.6155 79.945 42.5132 79.5531 41.7443C78.6104 39.894 77.1061 38.3897 75.256 37.4469C74.487 37.0551 73.3847 36.7359 71.229 36.5598C69.016 36.379 66.1533 36.3752 61.9416 36.3752Z" fill="#F3F3F3"/>
</svg>
